<svg width="104" height="63" viewBox="0 0 104 63" fill="none" xmlns="http://www.w3.org/2000/svg">
<g clip-path="url(#clip0_23_16)">
<path d="M52.4727 18.5239L49.4473 44.4761H40.9382C39.9927 40.5269 39.4255 36.0135 38.7636 30.8418C38.7636 33.0045 37.8182 37.5179 36.9673 44.4761H28.4582L25.4327 18.5239H32.1455L32.7127 27.4567L33.28 36.1075C33.28 31.5941 34.2255 25.4821 35.0764 18.3359H42.0727C42.0727 19.2761 42.3564 22.003 42.64 26.9866L43.2073 36.8597C43.4909 30.4657 44.1527 24.4478 45.0036 18.5239H51.7164L52.2836 18.2418H52.5673L52.4727 18.5239Z" fill="black"/>
<path d="M76.1091 18.5239V44.4762H70.0582V27.0806L67.6 44.4762H63.3455L60.8873 27.3627V44.4762H54.8364V18.5239H63.5345C63.5345 20.0284 64.1018 21.815 64.48 23.9777L65.4255 30.6538L66.9382 18.5239H75.92H76.1091Z" fill="black"/>
<path d="M6.23999 56.888C7.0909 57.4522 8.03635 57.8283 8.98181 57.8283H86.6036C87.8327 57.8283 89.0618 58.3925 89.7236 59.4268C91.2364 61.5895 93.6945 63 96.2473 63C98.8 63 102.298 61.4955 103.716 58.7686V58.2045C103.716 58.2045 103.433 57.9224 103.149 57.9224H94.8291C93.9782 57.9224 93.3164 56.606 93.3164 54.9134C93.3164 53.2209 93.9782 51.9045 94.8291 51.9045H103.149C103.433 51.9045 103.527 51.9045 103.716 51.6224V51.0582C101.542 47.1089 96.2473 45.3224 91.7091 48.3313C87.1709 51.3403 90.48 49.4597 90.1018 49.9298C89.44 50.8701 88.3054 51.4343 87.0764 51.4343H11.2509V35.5433C11.2509 34.3209 11.8182 33.0985 12.8582 32.4403C15.0327 30.9358 16.4509 28.491 16.4509 25.9522C16.4509 23.4134 14.9382 19.9343 12.1964 18.5239H11.6291C11.6291 18.5239 11.3454 18.806 11.3454 19.088V27.3627C11.3454 28.2089 10.0218 28.8671 8.31999 28.8671C6.61817 28.8671 5.29454 28.2089 5.29454 27.3627V19.088C5.29454 18.806 5.29454 18.7119 5.0109 18.5239H4.44363C0.472717 20.6866 -1.32365 25.9522 1.70181 30.4657C4.72726 34.9791 2.83635 31.688 3.30908 32.0642C4.25454 32.7224 4.82181 33.8507 4.82181 35.0731V53.691C4.82181 55.0074 5.38908 56.2298 6.42908 57.0761L6.14544 56.794L6.23999 56.888Z" fill="#9B9B9B"/>
<path d="M97.3818 6.29999C96.5309 5.73581 95.5855 5.35969 94.64 5.35969H17.2073C15.9782 5.35969 14.7491 4.79551 14.0873 3.76118C12.5745 1.5985 10.1164 0.188049 7.46909 0.188049C4.82182 0.188049 1.51273 1.69253 0 4.41939V4.98357C0 5.0776 0.283636 5.26566 0.567273 5.26566H8.88727C9.73818 5.26566 10.4 6.58208 10.4 8.27462C10.4 9.96715 9.73818 11.2836 8.88727 11.2836H0.567273C0.283636 11.1895 0.0945455 11.1895 0 11.4716V12.0358C2.17455 15.9851 7.46909 17.7716 12.0073 14.7627C16.5455 11.7537 13.2364 13.6343 13.6145 13.1642C14.2764 12.2239 15.4109 11.6597 16.64 11.6597H92.4655V27.5507C92.4655 28.7731 91.8982 29.9955 90.8582 30.6537C88.6836 32.1582 87.2655 34.603 87.2655 37.1418C87.2655 39.6806 88.7782 43.1597 91.52 44.5701H92.0873C92.0873 44.5701 92.3709 44.288 92.3709 44.006V35.7313C92.3709 34.8851 93.6945 34.2269 95.3964 34.2269C97.0982 34.2269 98.4218 34.8851 98.4218 35.7313V44.006C98.4218 44.288 98.4218 44.3821 98.7055 44.5701H99.2727C103.244 42.4075 105.04 37.1418 102.015 32.6283C98.9891 28.1149 100.88 31.406 100.407 31.0298C99.4618 30.3716 98.8945 29.2433 98.8945 28.0209V9.497C98.8945 8.18059 98.3273 6.9582 97.2873 6.11193L97.5709 6.39402L97.3818 6.29999Z" fill="#9B9B9B"/>
</g>
<defs>
<clipPath id="clip0_23_16">
<rect width="104" height="63" fill="white"/>
</clipPath>
</defs>
</svg>
