<svg width="104" height="45" viewBox="0 0 104 45" fill="none" xmlns="http://www.w3.org/2000/svg">
<path d="M97.3818 6.29999C96.5309 5.73581 95.5855 5.35969 94.64 5.35969H17.2073C15.9782 5.35969 14.7491 4.79551 14.0873 3.76118C12.5745 1.5985 10.1164 0.188049 7.46909 0.188049C4.82182 0.188049 1.51273 1.69253 0 4.41939V4.98357C0 5.0776 0.283636 5.26566 0.567273 5.26566H8.88727C9.73818 5.26566 10.4 6.58208 10.4 8.27462C10.4 9.96715 9.73818 11.2836 8.88727 11.2836H0.567273C0.283636 11.1895 0.0945455 11.1895 0 11.4716V12.0358C2.17455 15.9851 7.46909 17.7716 12.0073 14.7627C16.5455 11.7537 13.2364 13.6343 13.6145 13.1642C14.2764 12.2239 15.4109 11.6597 16.64 11.6597H92.4655V27.5507C92.4655 28.7731 91.8982 29.9955 90.8582 30.6537C88.6836 32.1582 87.2655 34.603 87.2655 37.1418C87.2655 39.6806 88.7782 43.1597 91.52 44.5701H92.0873C92.0873 44.5701 92.3709 44.288 92.3709 44.006V35.7313C92.3709 34.8851 93.6945 34.2269 95.3964 34.2269C97.0982 34.2269 98.4218 34.8851 98.4218 35.7313V44.006C98.4218 44.288 98.4218 44.3821 98.7055 44.5701H99.2727C103.244 42.4075 105.04 37.1418 102.015 32.6283C98.9891 28.1149 100.88 31.406 100.407 31.0298C99.4618 30.3716 98.8945 29.2433 98.8945 28.0209V9.497C98.8945 8.18059 98.3273 6.9582 97.2873 6.11193L97.5709 6.39402L97.3818 6.29999Z" fill="#9B9B9B"/>
</svg>
