<svg width="50" height="50" viewBox="0 0 50 50" fill="none" xmlns="http://www.w3.org/2000/svg">
<path d="M43.0501 25.2488C42.078 22.6503 39.1553 14.8544 39.1553 14.8544C38.5133 13.1436 36.6074 12.2756 34.8959 12.9173L32.121 13.9571L27.7123 14.7458L23.1348 10.3526C22.7686 9.99825 22.2825 9.86945 21.8122 9.91975L17.2671 0.604668C17.0693 0.19375 16.575 0.0218898 16.1585 0.222869C15.7468 0.423848 15.5751 0.920594 15.7761 1.33222L20.457 10.9244C20.2077 11.5355 20.3309 12.2617 20.8366 12.7464L21.7927 13.663L27.8612 26.1021L26.3893 30.771L24.3018 29.3422C23.5725 28.8431 23.0765 28.0708 22.9273 27.2004L21.3162 17.8528C21.2564 17.502 21.138 17.1641 20.9692 16.852L17.8379 11.0657L15.0597 0.965392C14.9023 0.395646 14.3839 0 13.792 0H8.01562C7.29091 0 6.70233 0.58848 6.70233 1.3138V48.4788C6.70233 49.2042 7.29091 49.7924 8.01552 49.7924H35.521C35.9913 49.7924 36.429 49.5396 36.6622 49.1295C36.8956 48.7202 36.8924 48.2161 36.6524 47.8102L31.9325 39.821C31.8288 39.6459 31.7429 39.4612 31.6733 39.2708L29.8338 34.1829C30.3605 33.8823 30.782 33.3967 30.9798 32.7734L31.0314 32.605L39.2914 49.5338C39.4337 49.8289 39.7287 49.9998 40.0366 49.9998C40.1583 49.9998 40.2831 49.9731 40.3999 49.9156C40.8115 49.7146 40.9833 49.2179 40.7823 48.8062L36.6332 40.3023C36.6653 40.3039 36.6963 40.3186 36.7305 40.3186C36.9184 40.3186 37.1129 40.2968 37.3041 40.2513C38.6429 39.9354 39.4713 38.5941 39.1552 37.2561L37.7581 31.344L42.2185 28.6486C43.094 28.1185 43.6427 26.833 43.0501 25.2488ZM25.2643 16.9963L26.023 17.7257C26.3341 18.0255 26.7491 18.1884 27.1739 18.1884C27.2711 18.1884 27.3684 18.1794 27.4656 18.1623L32.9377 17.1825L35.0267 22.7576L31.4887 22.0274C30.2373 21.7697 28.9957 22.4999 28.6117 23.7179L28.584 23.8029L25.2643 16.9963ZM31.7575 30.305L32.6847 27.3584L34.2066 27.6728L33.6314 28.0212C32.7043 28.5804 32.247 29.6721 32.4951 30.7239L32.9959 32.8482L31.7575 30.305Z" fill="black"/>
<path d="M32.8482 12.4141C34.9052 12.4141 36.5731 10.7464 36.5731 8.68862C36.5731 6.63169 34.9052 4.96399 32.8482 4.96399C30.7917 4.96399 29.1221 6.63169 29.1221 8.68862C29.1222 10.7464 30.7917 12.4141 32.8482 12.4141Z" fill="black"/>
</svg>
